# xmcd
#
# Track frame offsets:
#	150
#	17664
#	27497
#	46229
#	57113
#	65181
#	78639
#	92259
#	103815
#	121831
#	136312
#	149214
#
# Disc length: 2224 seconds
#
# Revision: 1
# Processed by: cddbd v1.4PL0 Copyright (c) Steve Scherf et al.
# Submitted via: audiograbber 1.82.01
#
DISCID=a908ae0c
DTITLE=The Wright Sisters - First Flight
DYEAR=2003
DGENRE=Bluegrass
TTITLE0=I'll Fly Away
TTITLE1=Boil Them Cabbage Down
TTITLE2=Gentle River
TTITLE3=Keep Your Feet on the Ground
TTITLE4=Cripple Creek
TTITLE5=Little Bird of Heaven
TTITLE6=Lonesome Wind Blues
TTITLE7=Dueling Banjos
TTITLE8=Ten Thousand Angels Cried
TTITLE9=Old Joe Clark
TTITLE10=Solid Rock
TTITLE11=Orange Blossom Special
EXTD=
EXTT0=
EXTT1=
EXTT2=
EXTT3=
EXTT4=
EXTT5=
EXTT6=
EXTT7=
EXTT8=
EXTT9=
EXTT10=
EXTT11=
PLAYORDER=
